<?xml version="1.0" encoding="UTF-8"?>
<svg xmlns="http://www.w3.org/2000/svg" viewBox="0 0 200 50" width="200" height="50">
  <g fill="#002346">
    <path d="M10.2,12.5c3.8,0,6.9,3.1,6.9,6.9c0,3.8-3.1,6.9-6.9,6.9c-3.8,0-6.9-3.1-6.9-6.9C3.3,15.6,6.4,12.5,10.2,12.5z"/>
    <path d="M30.1,12.5h-5.8v13.8h5.8c3.8,0,6.9-3.1,6.9-6.9C37,15.6,33.9,12.5,30.1,12.5z M30.1,22.5h-1.7v-6.2h1.7c1.7,0,3.1,1.4,3.1,3.1C33.2,21.1,31.8,22.5,30.1,22.5z"/>
    <path d="M48.9,12.5l-4.6,13.8h4.3l0.7-2.4h4.9l0.7,2.4h4.3l-4.6-13.8H48.9z M50.3,20.1l1.3-4.5l1.3,4.5H50.3z"/>
    <path d="M69.9,12.5l-3.4,5.2l-3.4-5.2h-4.8l6,8.6v5.2h4.3v-5.2l6-8.6H69.9z"/>
    <path d="M83.6,12.5c-3.8,0-6.9,3.1-6.9,6.9c0,3.8,3.1,6.9,6.9,6.9c2.4,0,4.5-1.2,5.8-3.1l-3.6-2.1c-0.5,0.7-1.3,1.1-2.2,1.1c-1.5,0-2.8-1.2-2.8-2.8c0-1.5,1.2-2.8,2.8-2.8c0.9,0,1.7,0.4,2.2,1.1l3.6-2.1C88.1,13.7,86,12.5,83.6,12.5z"/>
    <path d="M101.6,12.5h-9.3v13.8h9.3v-3.8h-5v-1.2h4.3v-3.8h-4.3v-1.2h5V12.5z"/>
    <path d="M113.3,16.3h3.8v10h4.3v-10h3.8v-3.8h-11.9V16.3z"/>
    <path d="M136.4,12.5h-5.8v13.8h5.8c3.8,0,6.9-3.1,6.9-6.9C143.3,15.6,140.2,12.5,136.4,12.5z M136.4,22.5h-1.7v-6.2h1.7c1.7,0,3.1,1.4,3.1,3.1C139.5,21.1,138.1,22.5,136.4,22.5z"/>
    <path d="M155.2,12.5h-4.3v13.8h4.3V12.5z"/>
    <path d="M167.2,12.5h-5.8v13.8h4.3v-3.6h1.5c3.8,0,6.9-2.3,6.9-5.1C174.1,14.8,171,12.5,167.2,12.5z M167.2,18.9h-1.5v-2.6h1.5c0.7,0,1.3,0.6,1.3,1.3C168.5,18.3,167.9,18.9,167.2,18.9z"/>
    <path d="M186,12.5h-9.3v13.8h9.3v-3.8h-5v-1.2h4.3v-3.8h-4.3v-1.2h5V12.5z"/>
    <path d="M196.7,12.5h-4.3v13.8h4.3V12.5z"/>
  </g>
  <path fill="#00AEF0" d="M20,35c0,0-5-10-15-10c0,0,10,0,10-10C15,25,20,35,20,35z"/>
</svg>
